<?xml version="1.0" encoding="utf-8"?>
<!-- Generator: Adobe Illustrator 16.0.3, SVG Export Plug-In . SVG Version: 6.00 Build 0)  -->
<!DOCTYPE svg PUBLIC "-//W3C//DTD SVG 1.1//EN" "http://www.w3.org/Graphics/SVG/1.1/DTD/svg11.dtd">
<svg version="1.1" id="Calque_1" xmlns="http://www.w3.org/2000/svg" xmlns:xlink="http://www.w3.org/1999/xlink" x="0px" y="0px"
	 width="64px" height="64px" viewBox="0 0 64 64" enable-background="new 0 0 64 64" xml:space="preserve">
<g>
	<defs>
		<rect id="SVGID_1_" width="64" height="64"/>
	</defs>
	<clipPath id="SVGID_2_">
		<use xlink:href="#SVGID_1_"  overflow="visible"/>
	</clipPath>
	<path clip-path="url(#SVGID_2_)" fill="#1689A5" d="M31.6,62.1C15,62.1,1.4,48.6,1.4,31.9C1.4,15.2,15,1.6,31.6,1.6
		c16.7,0,30.3,13.6,30.3,30.3C61.9,48.6,48.3,62.1,31.6,62.1 M31.6,9.8c-12.2,0-22.1,9.9-22.1,22.1C9.6,44.1,19.5,54,31.6,54
		s22.1-9.9,22.1-22.1C53.7,19.7,43.8,9.8,31.6,9.8"/>
	<path clip-path="url(#SVGID_2_)" fill="#1689A5" d="M41.8,45.5c-1.5,0-2.8-1.3-2.8-2.8s1.3-2.8,2.8-2.8c1,0,1.8,0.5,2.3,1.2h2.2v-3
		l-3-4.8h-4.8V42c0,0.5-0.4,0.8-0.8,0.8h-6.6c-0.1,1.5-1.3,2.7-2.8,2.7c-1.5,0-2.8-1.3-2.8-2.8h-2.6c-0.5,0-0.8-0.4-0.8-0.8V31.8
		h1.6v9.3H26c0.5-0.7,1.4-1.2,2.3-1.2c1,0,1.9,0.5,2.4,1.3h6.2V29.3h-6.6v-1.6h7.4c0.5,0,0.8,0.4,0.8,0.8v3.1h5.3
		c0.3,0,0.5,0.1,0.7,0.4l3.4,5.4c0.1,0.1,0.1,0.3,0.1,0.4v4c0,0.5-0.4,0.8-0.8,0.8h-2.6C44.6,44.2,43.3,45.5,41.8,45.5 M41.8,41.5
		c-0.6,0-1.2,0.6-1.2,1.2c0,0.6,0.6,1.2,1.2,1.2s1.2-0.6,1.2-1.2C43,41.9,42.4,41.5,41.8,41.5 M28.3,41.5c-0.6,0-1.2,0.6-1.2,1.2
		c0,0.6,0.6,1.2,1.2,1.2c0.6,0,1.2-0.6,1.2-1.2C29.5,41.9,28.9,41.5,28.3,41.5 M22.2,30.7c-3.8,0-6.9-3.1-6.9-6.9
		c0-3.8,3.1-6.9,6.9-6.9c3.7,0,6.9,3.2,6.9,6.9C29.1,27.6,26,30.7,22.2,30.7 M22.2,18.5c-2.9,0-5.3,2.3-5.3,5.3
		c0,2.9,2.3,5.3,5.3,5.3c2.9,0,5.3-2.4,5.3-5.3C27.5,21,25.1,18.5,22.2,18.5"/>
	<path clip-path="url(#SVGID_2_)" fill="#1689A5" d="M20.2,41.3h-0.7c-0.5,0-0.8-0.4-0.8-0.8c0-0.5,0.4-0.8,0.8-0.8h0.7
		c0.5,0,0.8,0.4,0.8,0.8C21,41,20.6,41.3,20.2,41.3 M20.2,38.6h-2c-0.5,0-0.8-0.4-0.8-0.8c0-0.5,0.4-0.8,0.8-0.8h2
		c0.5,0,0.8,0.4,0.8,0.8C21,38.3,20.6,38.6,20.2,38.6 M20.2,35.9h-4c-0.5,0-0.8-0.4-0.8-0.8c0-0.5,0.4-0.8,0.8-0.8h4
		c0.5,0,0.8,0.4,0.8,0.8C21,35.6,20.6,35.9,20.2,35.9 M24.2,25.2h-2.7c-0.5,0-0.8-0.4-0.8-0.8v-4c0-0.5,0.4-0.8,0.8-0.8
		c0.5,0,0.8,0.4,0.8,0.8v3.2h1.9c0.5,0,0.8,0.4,0.8,0.8C25,24.8,24.7,25.2,24.2,25.2"/>
	<path clip-path="url(#SVGID_2_)" fill="#1689A5" d="M39.9,42.7h-2.2v-1.6h2.2V42.7z M46.6,38.6h-9V37h9V38.6z"/>
</g>
</svg>
