<?xml version="1.0" encoding="utf-8"?>
<!-- Generator: Adobe Illustrator 16.0.3, SVG Export Plug-In . SVG Version: 6.00 Build 0)  -->
<!DOCTYPE svg PUBLIC "-//W3C//DTD SVG 1.1//EN" "http://www.w3.org/Graphics/SVG/1.1/DTD/svg11.dtd">
<svg version="1.1" id="Calque_1" xmlns="http://www.w3.org/2000/svg" xmlns:xlink="http://www.w3.org/1999/xlink" x="0px" y="0px"
	 width="64px" height="64px" viewBox="0 0 64 64" enable-background="new 0 0 64 64" xml:space="preserve">
<g>
	<defs>
		<rect id="SVGID_1_" width="64" height="64"/>
	</defs>
	<clipPath id="SVGID_2_">
		<use xlink:href="#SVGID_1_"  overflow="visible"/>
	</clipPath>
	<path clip-path="url(#SVGID_2_)" fill="#2995CF" d="M31.6,62.1C15,62.1,1.4,48.6,1.4,31.9C1.4,15.2,15,1.6,31.6,1.6
		c16.7,0,30.3,13.6,30.3,30.3C61.9,48.6,48.3,62.1,31.6,62.1 M31.6,9.8c-12.2,0-22.1,9.9-22.1,22.1C9.6,44.1,19.5,54,31.6,54
		s22.1-9.9,22.1-22.1C53.7,19.7,43.8,9.8,31.6,9.8"/>
	<path clip-path="url(#SVGID_2_)" fill="#2995CF" d="M29.1,47.6c-0.1,0-0.2,0-0.3-0.1c-0.4-0.2-0.5-0.5-0.5-0.9l2.5-11.2H21
		c-0.3,0-0.6-0.2-0.7-0.4s-0.1-0.6,0.1-0.8l13.5-18.9c0.2-0.3,0.6-0.4,1-0.3c0.4,0.2,0.5,0.5,0.5,0.9l-2.5,11.2h9.8
		c0.3,0,0.6,0.2,0.7,0.4c0.1,0.3,0.1,0.6-0.1,0.8L29.8,47.3C29.6,47.5,29.4,47.6,29.1,47.6 M22.6,33.8h9.2c0.2,0,0.5,0.1,0.6,0.3
		s0.2,0.4,0.2,0.7l-1.8,8.2L41,28.7h-9.2c-0.2,0-0.5-0.1-0.6-0.3C31,28.2,31,27.9,31,27.7l1.8-8.2L22.6,33.8z"/>
</g>
</svg>
