<?xml version="1.0" encoding="utf-8"?>
<!-- Generator: Adobe Illustrator 16.0.3, SVG Export Plug-In . SVG Version: 6.00 Build 0)  -->
<!DOCTYPE svg PUBLIC "-//W3C//DTD SVG 1.1//EN" "http://www.w3.org/Graphics/SVG/1.1/DTD/svg11.dtd">
<svg version="1.1" id="Calque_1" xmlns="http://www.w3.org/2000/svg" xmlns:xlink="http://www.w3.org/1999/xlink" x="0px" y="0px"
	 width="64px" height="64px" viewBox="0 0 64 64" enable-background="new 0 0 64 64" xml:space="preserve">
<g>
	<defs>
		<rect id="SVGID_1_" width="64" height="64"/>
	</defs>
	<clipPath id="SVGID_2_">
		<use xlink:href="#SVGID_1_"  overflow="visible"/>
	</clipPath>
	<path clip-path="url(#SVGID_2_)" fill="#2995CF" d="M31.6,62.1C15,62.1,1.4,48.6,1.4,31.9C1.4,15.2,15,1.6,31.6,1.6
		c16.7,0,30.3,13.6,30.3,30.3C61.9,48.6,48.3,62.1,31.6,62.1 M31.6,9.8c-12.2,0-22.1,9.9-22.1,22.1C9.6,44.1,19.5,54,31.6,54
		s22.1-9.9,22.1-22.1C53.7,19.7,43.8,9.8,31.6,9.8"/>
	<path clip-path="url(#SVGID_2_)" fill="#2995CF" d="M31.7,48.8L31.7,48.8c-0.1,0-0.1,0-0.2,0c0,0,0,0,0,0c0,0-0.1,0-0.1,0L15.8,42
		c-0.3-0.1-0.5-0.4-0.5-0.8V23.7c0-0.1,0-0.2,0-0.3v0c0,0,0-0.1,0-0.1c0.1-0.2,0.2-0.3,0.4-0.4c0,0,0,0,0,0l15.5-6.8
		c0.2-0.1,0.4-0.1,0.7,0l15.5,6.8c0,0,0,0,0,0c0.2,0.1,0.3,0.2,0.4,0.4c0,0,0,0,0,0c0,0,0,0,0,0.1v0c0,0.1,0,0.2,0,0.3v17.6
		c0,0.3-0.2,0.6-0.5,0.8L32,48.7c0,0-0.1,0-0.1,0c0,0,0,0,0,0h0C31.9,48.8,31.8,48.8,31.7,48.8 M32.5,30.9v15.8l13.9-6.1V24.9
		L32.5,30.9z M17,40.7l13.9,6.1V30.9l-13.9-6V40.7z M18.2,23.6l13.5,5.9l13.5-5.9l-13.5-5.9L18.2,23.6z"/>
</g>
</svg>
