<?xml version="1.0" encoding="utf-8"?>
<!-- Generator: Adobe Illustrator 16.0.3, SVG Export Plug-In . SVG Version: 6.00 Build 0)  -->
<!DOCTYPE svg PUBLIC "-//W3C//DTD SVG 1.1//EN" "http://www.w3.org/Graphics/SVG/1.1/DTD/svg11.dtd">
<svg version="1.1" id="Calque_1" xmlns="http://www.w3.org/2000/svg" xmlns:xlink="http://www.w3.org/1999/xlink" x="0px" y="0px"
	 width="64px" height="64px" viewBox="0 0 64 64" enable-background="new 0 0 64 64" xml:space="preserve">
<g>
	<defs>
		<rect id="SVGID_1_" width="64" height="64"/>
	</defs>
	<clipPath id="SVGID_2_">
		<use xlink:href="#SVGID_1_"  overflow="visible"/>
	</clipPath>
	<path clip-path="url(#SVGID_2_)" fill="#187BBD" d="M31.6,62.1C15,62.1,1.4,48.6,1.4,31.9C1.4,15.2,15,1.6,31.6,1.6
		c16.7,0,30.3,13.6,30.3,30.3C61.9,48.6,48.3,62.1,31.6,62.1 M31.6,9.8c-12.2,0-22.1,9.9-22.1,22.1C9.6,44.1,19.5,54,31.6,54
		s22.1-9.9,22.1-22.1C53.7,19.7,43.8,9.8,31.6,9.8"/>
	<path clip-path="url(#SVGID_2_)" fill="#187BBD" d="M47,40.3H16c-0.5,0-0.8-0.4-0.8-0.8V19.2c0-0.5,0.4-0.8,0.8-0.8h31
		c0.5,0,0.8,0.4,0.8,0.8v20.2C47.8,39.9,47.5,40.3,47,40.3 M16.8,38.6h29.4V20H16.8V38.6z"/>
	<path clip-path="url(#SVGID_2_)" fill="#187BBD" d="M37.6,51c-0.2,0-0.4-0.1-0.6-0.2l-6.2-6.2l-6.2,6.2c-0.3,0.3-0.8,0.3-1.2,0
		s-0.3-0.8,0-1.2l6.5-6.5v-3.7c0-0.5,0.4-0.8,0.8-0.8c0.5,0,0.8,0.4,0.8,0.8v3.7l6.5,6.5c0.3,0.3,0.3,0.8,0,1.2
		C38,51,37.8,51,37.6,51 M29.5,33.5c0,0-0.1,0-0.1,0c-0.3,0-0.5-0.2-0.6-0.5l-2.2-4.8l-1.9,2.3c-0.2,0.2-0.4,0.3-0.6,0.3h-5.4
		c-0.5,0-0.8-0.4-0.8-0.8c0-0.5,0.4-0.8,0.8-0.8h5l2.5-3.1c0.2-0.2,0.5-0.3,0.7-0.3c0.3,0,0.5,0.2,0.6,0.5l2.2,4.9l2.5-3
		c0.1-0.2,0.4-0.3,0.6-0.3c0.2,0,0.5,0.1,0.6,0.2l2,2l4.2-5.9c0.3-0.4,0.8-0.5,1.1-0.2c0.4,0.3,0.5,0.8,0.2,1.1l-4.7,6.7
		c-0.1,0.2-0.4,0.3-0.6,0.3c-0.2,0-0.5-0.1-0.6-0.2l-2.1-2.1l-2.8,3.4C30,33.4,29.7,33.5,29.5,33.5"/>
	<path clip-path="url(#SVGID_2_)" fill="#187BBD" d="M44.5,37.6H18.8c-0.5,0-0.8-0.4-0.8-0.8V21.9c0-0.5,0.4-0.8,0.8-0.8h25.6
		c0.5,0,0.8,0.4,0.8,0.8v14.8C45.3,37.2,44.9,37.6,44.5,37.6 M19.7,35.9h24V22.7h-24V35.9z"/>
</g>
</svg>
