<?xml version="1.0" encoding="utf-8"?>
<!-- Generator: Adobe Illustrator 16.0.3, SVG Export Plug-In . SVG Version: 6.00 Build 0)  -->
<!DOCTYPE svg PUBLIC "-//W3C//DTD SVG 1.1//EN" "http://www.w3.org/Graphics/SVG/1.1/DTD/svg11.dtd">
<svg version="1.1" id="Calque_1" xmlns="http://www.w3.org/2000/svg" xmlns:xlink="http://www.w3.org/1999/xlink" x="0px" y="0px"
	 width="64px" height="64px" viewBox="0 0 64 64" enable-background="new 0 0 64 64" xml:space="preserve">
<g>
	<defs>
		<rect id="SVGID_1_" width="64" height="64"/>
	</defs>
	<clipPath id="SVGID_2_">
		<use xlink:href="#SVGID_1_"  overflow="visible"/>
	</clipPath>
	<path clip-path="url(#SVGID_2_)" fill="#849CB0" d="M31.6,62.1C15,62.1,1.4,48.6,1.4,31.9C1.4,15.2,15,1.6,31.6,1.6
		c12.5,0,19.8,6.1,23.7,11.2c4.1,5.4,6.6,12.5,6.6,19.1C61.9,48.6,48.3,62.1,31.6,62.1 M31.6,9.8c-12.2,0-22.1,9.9-22.1,22.1
		C9.6,44.1,19.5,54,31.6,54s22.1-9.9,22.1-22.1C53.7,26.2,49.7,9.8,31.6,9.8"/>
	<path clip-path="url(#SVGID_2_)" fill="#849CB0" d="M35.3,35.1c-0.1,0-0.1,0-0.2,0c-0.4-0.1-0.7-0.4-0.7-0.8c0,0,0-2.9-2.2-6.7
		c-0.8,1.5-1.8,2.3-3,2.5c-1.5,0.2-3.2-0.7-4.8-2.5c-2.1-2.4-3-8.9-1.1-12.5c0.1-0.2,0.3-0.4,0.6-0.4c0.2,0,0.5,0,0.7,0.2
		c1.4,1.2,3,1.7,4.5,2.1c1.7,0.5,3.5,1.1,4.8,2.6c1.4,1.6,1.9,3.1,1.6,4.5c-0.2,1-0.9,1.8-1.9,2.6c1.2,1.9,1.8,3.6,2.2,4.9
		c0.3-0.6,0.7-1.2,1.2-1.8c-1-0.9-1.3-1.9-1.3-2.5c0-1.1,0.7-2.3,1.9-3.1c1-0.7,2.1-1,3.1-1.2c1.1-0.3,2.2-0.6,3.4-1.5
		c0.2-0.1,0.5-0.2,0.7-0.1c0.2,0.1,0.4,0.2,0.5,0.5c1.3,2.8,0.3,7.5-1.3,9.2c-1.2,1.2-2.6,1.8-3.9,1.6c-0.6-0.1-1.4-0.5-2.1-1.5
		c-1.2,1.8-1.9,3.4-1.9,3.4C36,34.9,35.6,35.1,35.3,35.1 M39,29.7c0.3,0.6,0.7,1.1,1.4,1.2c0.8,0.2,1.8-0.5,2.4-1.1
		c1.1-1.1,1.8-4.3,1.3-6.5c-1.1,0.6-2.1,0.9-3,1.1c-1,0.2-1.8,0.5-2.6,1c-0.7,0.5-1.2,1.1-1.2,1.7c0,0.5,0.3,0.9,0.7,1.3
		c0.9-0.9,1.9-1.8,3.1-2.4c0.4-0.2,0.9,0,1.1,0.4s0,0.9-0.4,1.1C40.7,28.1,39.8,28.9,39,29.7 M24.4,16.7c-1,3.1-0.3,8,1.3,9.8
		c1.2,1.4,2.4,2.1,3.3,2c0.8-0.1,1.5-0.8,2.1-2.2c0-0.1,0.1-0.2,0.2-0.2c-0.8-1.1-1.8-2.2-3-3.3c-0.3-0.3-0.4-0.8-0.1-1.2
		c0.3-0.3,0.8-0.4,1.2-0.1c1.4,1.2,2.5,2.5,3.4,3.7c0.7-0.5,1.1-1,1.3-1.6c0.2-1.1-0.5-2.3-1.2-3.1c-1-1.1-2.4-1.6-4-2.1
		C27.3,18.1,25.8,17.6,24.4,16.7"/>
	<path clip-path="url(#SVGID_2_)" fill="#849CB0" d="M23.1,46h-5.4c-0.5,0-0.8-0.4-0.8-0.8V34.3c0-0.5,0.4-0.8,0.8-0.8h5.4
		c0.5,0,0.8,0.4,0.8,0.8v10.8C24,45.6,23.6,46,23.1,46 M18.5,44.3h3.8v-9.2h-3.8V44.3z"/>
	<path clip-path="url(#SVGID_2_)" fill="#849CB0" d="M34.3,47.3c-1.7,0-3.6-0.6-6.9-1.8c-1.2-0.4-2.7-1-4.4-1.5
		c-0.4-0.1-0.7-0.6-0.5-1c0.1-0.4,0.6-0.7,1-0.5c1.8,0.6,3.2,1.1,4.5,1.5c6.8,2.4,6.8,2.4,13.4-1.1c1.6-0.9,3.6-1.9,6.1-3.2
		C46.5,39,45.8,39,45,39.2l-5.7,1.9c-0.1,0.1-0.1,0.1-0.2,0.2c-0.3,0.3-0.9,0.6-1.8,0.6h-7.4c-0.5,0-0.8-0.4-0.8-0.8
		c0-0.5,0.4-0.8,0.8-0.8h7.4c0.4,0,0.6-0.1,0.7-0.3c0,0,0,0,0-0.1c0-0.1,0-0.1,0-0.2c0-0.2-0.2-0.5-0.8-0.5h-4.1
		c-0.2,0-0.4-0.1-0.6-0.2c-0.7-0.7-2.8-2.5-5.5-2.5h-4.1c-0.5,0-0.8-0.4-0.8-0.8c0-0.5,0.4-0.8,0.8-0.8h4.1c3.1,0,5.4,1.7,6.4,2.7
		h3.7c1.3,0,2.1,0.8,2.4,1.6l4.8-1.6c1.8-0.5,3.3-0.1,4.9,1.5c0.2,0.2,0.3,0.4,0.2,0.7c0,0.3-0.2,0.5-0.4,0.6
		c-3,1.5-5.3,2.7-7.1,3.7C38.2,46.3,36.3,47.3,34.3,47.3"/>
</g>
</svg>
