<?xml version="1.0" encoding="utf-8"?>
<!-- Generator: Adobe Illustrator 16.0.3, SVG Export Plug-In . SVG Version: 6.00 Build 0)  -->
<!DOCTYPE svg PUBLIC "-//W3C//DTD SVG 1.1//EN" "http://www.w3.org/Graphics/SVG/1.1/DTD/svg11.dtd">
<svg version="1.1" id="Calque_1" xmlns="http://www.w3.org/2000/svg" xmlns:xlink="http://www.w3.org/1999/xlink" x="0px" y="0px"
	 width="64px" height="64px" viewBox="0 0 64 64" enable-background="new 0 0 64 64" xml:space="preserve">
<g>
	<defs>
		<rect id="SVGID_1_" width="64" height="64"/>
	</defs>
	<clipPath id="SVGID_2_">
		<use xlink:href="#SVGID_1_"  overflow="visible"/>
	</clipPath>
	<path clip-path="url(#SVGID_2_)" fill="#2592CE" d="M31.6,62.1C15,62.1,1.4,48.6,1.4,31.9C1.4,15.2,15,1.6,31.6,1.6
		c16.7,0,30.3,13.6,30.3,30.3C61.9,48.6,48.3,62.1,31.6,62.1 M31.6,9.8c-12.2,0-22.1,9.9-22.1,22.1C9.6,44.1,19.5,54,31.6,54
		s22.1-9.9,22.1-22.1C53.7,19.7,43.8,9.8,31.6,9.8"/>
	<path clip-path="url(#SVGID_2_)" fill="#2592CE" d="M31.7,40.8c-0.1,0-0.1,0-0.2,0c-0.4-0.1-0.6-0.4-0.6-0.8v-5.3h-3.9
		c-0.3,0-0.5-0.1-0.7-0.4c-0.1-0.2-0.2-0.5-0.1-0.8l4.7-10.1c0.2-0.3,0.5-0.5,0.9-0.5c0.4,0.1,0.6,0.4,0.6,0.8V29h3.9
		c0.3,0,0.5,0.1,0.7,0.4c0.1,0.2,0.2,0.5,0.1,0.8l-4.7,10.1C32.3,40.6,32,40.8,31.7,40.8 M28.2,33.1h3.4c0.5,0,0.8,0.4,0.8,0.8v2.4
		l2.6-5.6h-3.4c-0.5,0-0.8-0.4-0.8-0.8v-2.4L28.2,33.1z M43.1,40.1h-6.7c-0.5,0-0.8-0.4-0.8-0.8c0-0.5,0.4-0.8,0.8-0.8h5.9v-3.2
		c0-0.5,0.4-0.8,0.8-0.8h3.2v-5.1h-3.2c-0.5,0-0.8-0.4-0.8-0.8v-3.2h-6.6c-0.5,0-0.8-0.4-0.8-0.8c0-0.5,0.4-0.8,0.8-0.8h7.4
		c0.5,0,0.8,0.4,0.8,0.8v3.2h3.2c0.5,0,0.8,0.4,0.8,0.8v6.7c0,0.5-0.4,0.8-0.8,0.8h-3.2v3.2C43.9,39.8,43.6,40.1,43.1,40.1
		 M27.6,40.1H16.1c-0.5,0-0.8-0.4-0.8-0.8V24.5c0-0.5,0.4-0.8,0.8-0.8h10.8c0.5,0,0.8,0.4,0.8,0.8c0,0.5-0.4,0.8-0.8,0.8H17v13.2
		h10.6c0.5,0,0.8,0.4,0.8,0.8C28.4,39.8,28.1,40.1,27.6,40.1"/>
</g>
</svg>
