<?xml version="1.0" encoding="utf-8"?>
<!-- Generator: Adobe Illustrator 16.0.3, SVG Export Plug-In . SVG Version: 6.00 Build 0)  -->
<!DOCTYPE svg PUBLIC "-//W3C//DTD SVG 1.1//EN" "http://www.w3.org/Graphics/SVG/1.1/DTD/svg11.dtd">
<svg version="1.1" id="Calque_1" xmlns="http://www.w3.org/2000/svg" xmlns:xlink="http://www.w3.org/1999/xlink" x="0px" y="0px"
	 width="64px" height="64px" viewBox="0 0 64 64" enable-background="new 0 0 64 64" xml:space="preserve">
<g>
	<defs>
		<rect id="SVGID_1_" width="64" height="64"/>
	</defs>
	<clipPath id="SVGID_2_">
		<use xlink:href="#SVGID_1_"  overflow="visible"/>
	</clipPath>
	<path clip-path="url(#SVGID_2_)" fill="#1A7DBE" d="M31.6,62.1C15,62.1,1.4,48.6,1.4,31.9C1.4,15.2,15,1.6,31.6,1.6
		c16.7,0,30.3,13.6,30.3,30.3C61.9,48.6,48.3,62.1,31.6,62.1 M31.6,9.8c-12.2,0-22.1,9.9-22.1,22.1C9.6,44.1,19.5,54,31.6,54
		s22.1-9.9,22.1-22.1C53.7,19.7,43.8,9.8,31.6,9.8"/>
	<path clip-path="url(#SVGID_2_)" fill="#1A7DBE" d="M31.8,42.2h-9.5c-0.5,0-0.8-0.4-0.8-0.8v-0.5h-5.9c-0.5,0-0.8-0.4-0.8-0.8
		c0-0.5,0.4-0.8,0.8-0.8h5.9v-1.1h-5.9c-0.5,0-0.8-0.4-0.8-0.8c0-0.5,0.4-0.8,0.8-0.8h5.9v-1.1h-5.9c-0.5,0-0.8-0.4-0.8-0.8
		s0.4-0.8,0.8-0.8h5.9v-1.1h-5.9c-0.5,0-0.8-0.4-0.8-0.8c0-0.5,0.4-0.8,0.8-0.8h5.9v-2.6c0-0.3,0.1-0.5,0.3-0.7l8.1-6.1
		c0.1-0.1,0.3-0.2,0.5-0.2h9.5c0.4,0,0.7,0.2,0.8,0.6s0,0.7-0.3,0.9l-7.8,5.8v2.2h5.7l7.9-5.3c0.4-0.3,0.9-0.1,1.1,0.2
		c0.3,0.4,0.1,0.9-0.2,1.1L39,32.6c-0.1,0.1-0.3,0.1-0.5,0.1h-5.9v1.1h5.7l7.9-5.3c0.4-0.3,0.9-0.1,1.1,0.2c0.3,0.4,0.1,0.9-0.2,1.1
		L39,35.3c-0.1,0.1-0.3,0.1-0.5,0.1h-5.9v1.1h5.7l7.9-5.3c0.4-0.3,0.9-0.1,1.1,0.2c0.3,0.4,0.1,0.9-0.2,1.1L39,38
		c-0.1,0.1-0.3,0.1-0.5,0.1h-5.9v1.1h5.7l7.9-5.3c0.4-0.3,0.9-0.1,1.1,0.2c0.3,0.4,0.1,0.9-0.2,1.1L39,40.7
		c-0.1,0.1-0.3,0.1-0.5,0.1h-5.9v0.5C32.6,41.8,32.2,42.2,31.8,42.2 M23.1,40.5H31v-12c0-0.3,0.1-0.5,0.3-0.7l6.2-4.6h-6.7l-7.6,5.7
		V40.5z"/>
	<path clip-path="url(#SVGID_2_)" fill="#1A7DBE" d="M38.5,30h-6.8v-1.6h6.5l5.7-3.8h-6.1V23h8.8c0.4,0,0.7,0.2,0.8,0.6
		c0.1,0.3,0,0.7-0.3,0.9L39,29.9C38.9,30,38.7,30,38.5,30 M22.3,30h-6.8c-0.4,0-0.7-0.2-0.8-0.6c-0.1-0.3,0-0.7,0.3-0.9l8.1-5.4
		c0.1-0.1,0.3-0.1,0.5-0.1h4.7v1.6h-4.5l-5.7,3.8h4.1V30z"/>
	<path clip-path="url(#SVGID_2_)" fill="#1A7DBE" d="M27,40.1c-0.5,0-0.8-0.4-0.8-0.8v-0.7c-1.2-0.4-2-1.4-2-2.7
		c0-0.5,0.4-0.8,0.8-0.8c0.5,0,0.8,0.4,0.8,0.8c0,0.7,0.5,1.2,1.2,1.2s1.2-0.5,1.2-1.2c0-0.7-0.5-1.2-1.2-1.2
		c-1.6,0-2.8-1.3-2.8-2.8c0-1.3,0.9-2.4,2-2.7v-0.7c0-0.5,0.4-0.8,0.8-0.8c0.5,0,0.8,0.4,0.8,0.8v0.7c1.2,0.4,2,1.4,2,2.7
		c0,0.5-0.4,0.8-0.8,0.8c-0.5,0-0.8-0.4-0.8-0.8c0-0.7-0.5-1.2-1.2-1.2s-1.2,0.5-1.2,1.2c0,0.7,0.5,1.2,1.2,1.2
		c1.6,0,2.8,1.3,2.8,2.8c0,1.3-0.9,2.4-2,2.7v0.7C27.9,39.8,27.5,40.1,27,40.1"/>
</g>
</svg>
