<?xml version="1.0" encoding="utf-8"?>
<!-- Generator: Adobe Illustrator 16.0.3, SVG Export Plug-In . SVG Version: 6.00 Build 0)  -->
<!DOCTYPE svg PUBLIC "-//W3C//DTD SVG 1.1//EN" "http://www.w3.org/Graphics/SVG/1.1/DTD/svg11.dtd">
<svg version="1.1" id="Calque_1" xmlns="http://www.w3.org/2000/svg" xmlns:xlink="http://www.w3.org/1999/xlink" x="0px" y="0px"
	 width="64px" height="64px" viewBox="0 0 64 64" enable-background="new 0 0 64 64" xml:space="preserve">
<path fill="#0F7BBD" d="M57.8,31.9c0-0.5-0.3-1.1-0.6-1.4L41.1,13.4c-0.8-0.8-2-0.9-2.8-0.1c-0.8,0.7-0.8,2.1-0.1,2.8l12.9,13.7H7.5
	c-1.1,0-2,0.9-2,2c0,1.1,0.9,2,2,2h43.6L38.2,47.6c-0.7,0.8-0.7,2.1,0.1,2.8c0.8,0.8,2.1,0.7,2.8-0.1l16.1-17.1
	C57.7,32.8,57.8,32.4,57.8,31.9z"/>
</svg>
