<?xml version="1.0" encoding="utf-8"?>
<!-- Generator: Adobe Illustrator 16.0.3, SVG Export Plug-In . SVG Version: 6.00 Build 0)  -->
<!DOCTYPE svg PUBLIC "-//W3C//DTD SVG 1.1//EN" "http://www.w3.org/Graphics/SVG/1.1/DTD/svg11.dtd">
<svg version="1.1" id="Calque_1" xmlns="http://www.w3.org/2000/svg" xmlns:xlink="http://www.w3.org/1999/xlink" x="0px" y="0px"
	 width="64px" height="64px" viewBox="0 0 64 64" enable-background="new 0 0 64 64" xml:space="preserve">
<path fill="#0F7BBD" d="M46.9,31.9c0,0.5-0.2,0.9-0.5,1.2L21.9,57.5c-0.4,0.4-0.8,0.5-1.2,0.5c-0.5,0-0.9-0.2-1.2-0.5l-2.6-2.6
	c-0.4-0.3-0.5-0.8-0.5-1.2s0.2-0.9,0.5-1.2l20.6-20.6L16.9,11.3c-0.4-0.3-0.5-0.8-0.5-1.2c0-0.5,0.2-0.9,0.5-1.2l2.6-2.6
	c0.3-0.3,0.8-0.5,1.2-0.5c0.5,0,0.9,0.2,1.2,0.5l24.4,24.4C46.7,31,46.9,31.4,46.9,31.9"/>
</svg>
