<?xml version="1.0" encoding="iso-8859-1"?>
<!-- Generator: Adobe Illustrator 16.0.3, SVG Export Plug-In . SVG Version: 6.00 Build 0)  -->
<!DOCTYPE svg PUBLIC "-//W3C//DTD SVG 1.1//EN" "http://www.w3.org/Graphics/SVG/1.1/DTD/svg11.dtd">
<svg version="1.1" id="Calque_1" xmlns="http://www.w3.org/2000/svg" xmlns:xlink="http://www.w3.org/1999/xlink" x="0px" y="0px"
	 width="43.7px" height="43.701px" viewBox="0 0 43.7 43.701" style="enable-background:new 0 0 43.7 43.701;" xml:space="preserve"
	>
<g>
	<path style="fill:#E6223E;" d="M21.851,43.702C9.802,43.702,0,33.899,0,21.851C0,9.802,9.802,0,21.851,0
		C33.898,0,43.7,9.802,43.7,21.851C43.7,33.899,33.898,43.702,21.851,43.702z M21.851,5C12.559,5,5,12.56,5,21.851
		c0,9.292,7.559,16.852,16.851,16.852c9.291,0,16.85-7.56,16.85-16.852C38.7,12.56,31.142,5,21.851,5z"/>
	<path style="fill:#E6223E;" d="M31.578,31.378c-0.276,0-0.5-0.224-0.5-0.5v-0.63l-10.005-3.045
		c-0.112,2.106-1.861,3.786-3.995,3.786c-2.206,0-4-1.794-4-4v-2.219l-4-1.218v0.325c0,0.276-0.224,0.5-0.5,0.5s-0.5-0.224-0.5-0.5
		v-5c0-0.276,0.224-0.5,0.5-0.5s0.5,0.224,0.5,0.5v0.325l22-6.696v-0.629c0-0.276,0.224-0.5,0.5-0.5s0.5,0.224,0.5,0.5v19
		C32.078,31.154,31.854,31.378,31.578,31.378z M14.079,25.074v1.915c0,1.654,1.346,3,3,3s3-1.346,3-3
		c0-0.029,0.002-0.059,0.007-0.086L14.079,25.074z M13.855,23.961l17.223,5.242v-15.65l-22,6.696v2.258l4.503,1.371
		C13.683,23.879,13.776,23.909,13.855,23.961z"/>
</g>
</svg>
