<?xml version="1.0" encoding="utf-8"?>
<!-- Generator: Adobe Illustrator 16.0.3, SVG Export Plug-In . SVG Version: 6.00 Build 0)  -->
<!DOCTYPE svg PUBLIC "-//W3C//DTD SVG 1.1//EN" "http://www.w3.org/Graphics/SVG/1.1/DTD/svg11.dtd">
<svg version="1.1" id="Calque_1" xmlns="http://www.w3.org/2000/svg" xmlns:xlink="http://www.w3.org/1999/xlink" x="0px" y="0px"
	 width="64px" height="64px" viewBox="0 0 64 64" enable-background="new 0 0 64 64" xml:space="preserve">
<g>
	<defs>
		<rect id="SVGID_1_" width="64" height="64"/>
	</defs>
	<clipPath id="SVGID_2_">
		<use xlink:href="#SVGID_1_"  overflow="visible"/>
	</clipPath>
	<path clip-path="url(#SVGID_2_)" fill="#010101" d="M31.6,10.4c7,0,7.8,0,10.6,0.2c2.6,0.1,3.9,0.5,4.9,0.9c1.2,0.5,2.1,1,3,2
		c0.9,0.9,1.5,1.8,2,3c0.4,0.9,0.8,2.3,0.9,4.9c0.1,2.8,0.2,3.6,0.2,10.6c0,7,0,7.8-0.2,10.6c-0.1,2.6-0.5,3.9-0.9,4.9
		c-0.5,1.2-1,2.1-2,3c-0.9,0.9-1.8,1.5-3,2c-0.9,0.4-2.3,0.8-4.9,0.9c-2.8,0.1-3.6,0.2-10.6,0.2c-7,0-7.8,0-10.6-0.2
		c-2.6-0.1-3.9-0.5-4.9-0.9c-1.2-0.5-2.1-1-3-2c-0.9-0.9-1.5-1.8-2-3c-0.4-0.9-0.8-2.3-0.9-4.9c-0.1-2.8-0.2-3.6-0.2-10.6
		c0-7,0-7.8,0.2-10.6c0.1-2.6,0.5-3.9,0.9-4.9c0.5-1.2,1-2.1,2-3c0.9-0.9,1.8-1.5,3-2c0.9-0.4,2.3-0.8,4.9-0.9
		C23.8,10.5,24.7,10.4,31.6,10.4 M31.6,5.7c-7.1,0-8,0-10.8,0.2c-2.8,0.1-4.7,0.6-6.4,1.2c-1.7,0.7-3.2,1.6-4.6,3
		c-1.5,1.5-2.3,2.9-3,4.6c-0.6,1.7-1.1,3.6-1.2,6.4c-0.1,2.8-0.2,3.7-0.2,10.8c0,7.1,0,8,0.2,10.8c0.1,2.8,0.6,4.7,1.2,6.4
		c0.7,1.7,1.6,3.2,3,4.6c1.5,1.5,2.9,2.3,4.6,3c1.7,0.6,3.6,1.1,6.4,1.2c2.8,0.1,3.7,0.2,10.8,0.2c7.1,0,8,0,10.8-0.2
		c2.8-0.1,4.7-0.6,6.4-1.2c1.7-0.7,3.2-1.6,4.6-3c1.5-1.5,2.3-2.9,3-4.6c0.6-1.7,1.1-3.6,1.2-6.4c0.1-2.8,0.2-3.7,0.2-10.8
		c0-7.1,0-8-0.2-10.8c-0.1-2.8-0.6-4.7-1.2-6.4c-0.7-1.7-1.6-3.2-3-4.6c-1.5-1.5-2.9-2.3-4.6-3c-1.7-0.6-3.6-1.1-6.4-1.2
		C39.6,5.8,38.8,5.7,31.6,5.7"/>
	<path clip-path="url(#SVGID_2_)" fill="#010101" d="M31.6,18.5c-7.4,0-13.4,6-13.4,13.4c0,7.4,6,13.4,13.4,13.4s13.4-6,13.4-13.4
		C45.1,24.5,39.1,18.5,31.6,18.5 M31.6,40.6c-4.8,0-8.7-3.9-8.7-8.7c0-4.8,3.9-8.7,8.7-8.7c4.8,0,8.7,3.9,8.7,8.7
		C40.4,36.7,36.5,40.6,31.6,40.6"/>
	<path clip-path="url(#SVGID_2_)" fill="#010101" d="M48.8,17.9c0,1.7-1.4,3.1-3.1,3.1c-1.7,0-3.1-1.4-3.1-3.1s1.4-3.1,3.1-3.1
		C47.3,14.8,48.8,16.2,48.8,17.9"/>
</g>
</svg>
