<?xml version="1.0" encoding="utf-8"?>
<!-- Generator: Adobe Illustrator 16.0.3, SVG Export Plug-In . SVG Version: 6.00 Build 0)  -->
<!DOCTYPE svg PUBLIC "-//W3C//DTD SVG 1.1//EN" "http://www.w3.org/Graphics/SVG/1.1/DTD/svg11.dtd">
<svg version="1.1" id="Calque_1" xmlns="http://www.w3.org/2000/svg" xmlns:xlink="http://www.w3.org/1999/xlink" x="0px" y="0px"
	 width="247.5px" height="109.5px" viewBox="0 0 247.5 109.5" enable-background="new 0 0 247.5 109.5" xml:space="preserve">
<g>
	<path fill="#0D79BC" d="M51.8,79.6c0,6-5,10.5-13.1,10.5c-3.9,0-8.1-0.8-12.6-0.8c-2.4,0-3.9,0.3-5,0.3c-0.8,0-1.3-0.3-1.3-0.8
		c0-1.3,1.1-0.8,2.6-1.1c1.6-0.5,1.8-1.1,1.8-3.4v-27c0-1.8-0.8-2.4-2.1-2.4c-1.1,0-1.8,0.3-2.4,0.3S19,54.9,19,54.4
		c0-1.3,4.5-1.8,13.4-1.8c11.6,0,17.1,2.6,17.1,8.9c0,3.9-2.6,6.3-8.1,7.6C48.1,70.6,51.8,74.3,51.8,79.6 M29.2,67.5
		c0,1.6,0.5,1.6,2.1,1.6c8.4,0,12.6-2.6,12.6-7.4c0-5-3.4-7.6-10-7.6c-3.9,0-4.7,0.5-4.7,2.9V67.5z M30,70.6c-0.8,0-0.8,0-0.8,1.1
		V84c0,3.4,1.8,4.5,6.6,4.5c6.6,0,10.5-3.4,10.5-8.9c0-5.5-3.9-8.9-11-8.9H30z"/>
	<path fill="#0D79BC" d="M69.1,90.9c-8.4,0-13.9-5.8-13.9-13.9c0-8.4,5.8-13.9,15-13.9c8.7,0,14.2,5.8,14.2,13.9
		S78.6,90.9,69.1,90.9 M79.7,77.5c0-8.4-3.9-13.4-10-13.4c-6.3,0-10,4.5-10,12.6c0,8.1,4.2,13.1,10,13.1
		C76,89.8,79.7,85.3,79.7,77.5"/>
	<path fill="#0D79BC" d="M89.4,52.3h-1.1c-0.3,0-0.5-0.3-0.5-0.5c0-0.8,1-0.8,2.6-1.1c2.6-0.8,3.9-1.6,4.5-1.6s0.5,0.5,0.5,1.3v35.7
		c0,1.3,0.5,1.6,1.6,2.1c1.6,0.5,2.4,0,2.4,1.1c0,0.5-0.3,0.5-0.8,0.5c-0.8,0-2.4-0.3-5-0.3c-2.1,0-3.9,0.3-5.3,0.3
		c-0.5,0-1.1-0.3-1.1-0.5c0-0.8,1.1-0.5,2.1-0.8c1.3-0.5,2.1-0.5,2.1-2.1V55.1C91.5,53.3,90.7,52.3,89.4,52.3"/>
	<path fill="#0D79BC" d="M103.8,52.3h-1.1c-0.3,0-0.5-0.3-0.5-0.5c0-0.8,1.1-0.8,2.6-1.1c2.6-0.8,3.9-1.6,4.5-1.6
		c0.5,0,0.5,0.5,0.5,1.3v35.7c0,1.3,0.5,1.6,1.6,2.1c1.6,0.5,2.4,0,2.4,1.1c0,0.5-0.3,0.5-0.8,0.5c-0.8,0-2.4-0.3-5-0.3
		c-2.1,0-3.9,0.3-5.3,0.3c-0.5,0-1.1-0.3-1.1-0.5c0-0.8,1.1-0.5,2.1-0.8c1.3-0.5,2.1-0.5,2.1-2.1V55.1
		C105.9,53.3,105.1,52.3,103.8,52.3"/>
	<path fill="#0D79BC" d="M131.1,90.9c-8.4,0-13.9-5.8-13.9-13.9c0-8.4,5.8-13.9,15-13.9c8.7,0,14.2,5.8,14.2,13.9
		S140.6,90.9,131.1,90.9 M141.6,77.5c0-8.4-3.9-13.4-10-13.4c-6.3,0-10,4.5-10,12.6c0,8.1,4.2,13.1,10,13.1
		C138,89.8,141.6,85.3,141.6,77.5"/>
	<path fill="#0D79BC" d="M153.4,70.1c0-1.6,0-2.4-1.8-2.4c-0.8,0-1,0-1-0.5c0-0.8,1-0.8,2.6-1.6c2.4-1.3,3.4-2.9,3.9-2.9
		s0.5,0.5,0.5,1.3v3.4c0,0.3,0,0.5,0.3,0.5c0,0,0.3,0,0.5-0.3l1.3-1.6c2.1-2.1,4.2-3.4,6.6-3.4c2.4,0,3.9,1.1,3.9,2.9
		c0,1.6-1.3,2.6-2.4,2.6c-2.1,0-3.2-2.4-5-2.4c-2.6,0-5,3.1-5,9.5v9.7c0,2.6,0.5,3.7,4.2,3.7c1.1,0,1.3,0,1.3,0.5
		c0,0.5-0.5,0.5-1,0.5c-0.8,0-3.2-0.3-6.6-0.3c-2.1,0-3.7,0.3-4.7,0.3c-0.8,0-1.1,0-1.1-0.5c0-0.8,0.8-0.5,2.4-1.1
		c1.3-0.5,1.6-1.3,1.6-3.4V70.1H153.4z"/>
	<path fill="#0D79BC" d="M180.5,59.6l6.8-8.9c0.8-1.1,1.3-1.6,2.1-1.6c0.8,0,1.6,0.8,1.6,1.6c0,0.8-0.5,1.3-1.3,2.1l-7.9,6.8H180.5z
		 M175.8,75.6c0,7.6,4.5,12.3,11.3,12.3c2.6,0,4.7-0.8,6.8-2.1c1.1-0.8,1.6-1.6,2.1-1.6c0.3,0,0.5,0.3,0.5,0.5
		c0,0.5-0.8,1.8-2.6,3.2c-2.6,1.8-5.5,2.9-8.9,2.9c-8.1,0-13.7-5.5-13.7-13.9S177.6,63,185.7,63c6.8,0,11,4.5,11,9.2
		c0,1.1-0.5,1.3-2.1,1.3h-17.3C176,73.3,175.8,73.8,175.8,75.6 M183.4,71.7c6,0,8.9-0.3,8.9-2.6c0-2.4-2.9-5.3-6.8-5.3
		c-5,0-8.9,4.2-8.9,7.1c0,0.5,0.3,0.8,0.8,0.8H183.4z"/>
	<polygon fill="#0D79BC" points="211.7,22.3 203.1,37 217.8,28.6 	"/>
	<path fill="#B7BABC" d="M196.3,42.5c-28.4-29.9-57.5-34.1-57.5-34.1s33.6,2.6,60.4,31c27,26.3,29.4,61.7,29.4,61.7
		S223.8,69.9,196.3,42.5"/>
</g>
</svg>
