<?xml version="1.0" encoding="utf-8"?>
<!-- Generator: Adobe Illustrator 16.0.3, SVG Export Plug-In . SVG Version: 6.00 Build 0)  -->
<!DOCTYPE svg PUBLIC "-//W3C//DTD SVG 1.1//EN" "http://www.w3.org/Graphics/SVG/1.1/DTD/svg11.dtd">
<svg version="1.1" id="Calque_1" xmlns="http://www.w3.org/2000/svg" xmlns:xlink="http://www.w3.org/1999/xlink" x="0px" y="0px"
	 width="64px" height="64px" viewBox="0 0 64 64" enable-background="new 0 0 64 64" xml:space="preserve">
<path fill="#0F7BBD" d="M57.8,54c0,1.1-0.4,2-1.2,2.8c-0.8,0.8-1.7,1.2-2.8,1.2c-1.1,0-2.1-0.4-2.8-1.2L40.2,46.1
	c-3.8,2.6-7.9,3.9-12.5,3.9c-3,0-5.9-0.6-8.6-1.7c-2.7-1.2-5.1-2.7-7.1-4.7s-3.6-4.3-4.7-7.1c-1.2-2.7-1.7-5.6-1.7-8.6
	s0.6-5.9,1.7-8.6c1.2-2.7,2.7-5.1,4.7-7.1s4.3-3.6,7.1-4.7c2.7-1.2,5.6-1.7,8.6-1.7c3,0,5.9,0.6,8.6,1.7c2.7,1.2,5.1,2.7,7.1,4.7
	c2,2,3.6,4.3,4.7,7.1c1.2,2.7,1.7,5.6,1.7,8.6c0,4.6-1.3,8.8-3.9,12.5l10.8,10.8C57.4,52,57.8,52.9,57.8,54 M37.6,37.8
	c2.8-2.8,4.1-6.1,4.1-10c0-3.9-1.4-7.2-4.1-10s-6.1-4.1-10-4.1c-3.9,0-7.2,1.4-10,4.1c-2.8,2.8-4.1,6.1-4.1,10c0,3.9,1.4,7.2,4.1,10
	c2.8,2.8,6.1,4.1,10,4.1C31.5,42,34.8,40.6,37.6,37.8"/>
</svg>
