<?xml version="1.0" encoding="utf-8"?>
<!-- Generator: Adobe Illustrator 16.0.3, SVG Export Plug-In . SVG Version: 6.00 Build 0)  -->
<!DOCTYPE svg PUBLIC "-//W3C//DTD SVG 1.1//EN" "http://www.w3.org/Graphics/SVG/1.1/DTD/svg11.dtd">
<svg version="1.1" id="Calque_1" xmlns="http://www.w3.org/2000/svg" xmlns:xlink="http://www.w3.org/1999/xlink" x="0px" y="0px"
	 width="64px" height="64px" viewBox="0 0 64 64" enable-background="new 0 0 64 64" xml:space="preserve">
<g>
	<defs>
		<rect id="SVGID_1_" width="64" height="64"/>
	</defs>
	<clipPath id="SVGID_2_">
		<use xlink:href="#SVGID_1_"  overflow="visible"/>
	</clipPath>
	<path clip-path="url(#SVGID_2_)" fill="#010101" d="M32,56.5c-0.1,0-0.3,0-0.4,0c-0.1,0-0.2,0-0.3,0c-3.1,0-5.2-1.5-7-2.8
		c-1.3-0.9-2.6-1.8-4-2.1c-0.7-0.1-1.4-0.2-2.1-0.2c-1.2,0-2.2,0.2-2.9,0.3c-0.4,0.1-0.8,0.2-1.1,0.2c-0.3,0-0.7-0.1-0.8-0.6
		c-0.1-0.4-0.2-0.8-0.3-1.2c-0.2-1-0.4-1.6-0.7-1.6C8.3,47.9,6,47,5.6,45.9c0-0.1-0.1-0.2-0.1-0.3c0-0.3,0.2-0.6,0.5-0.7
		c3.1-0.5,5.9-2.2,8.2-4.9c1.8-2.1,2.7-4.1,2.8-4.3c0,0,0,0,0,0c0.5-0.9,0.5-1.7,0.3-2.3c-0.5-1.2-2.2-1.7-3.3-2.1
		c-0.3-0.1-0.5-0.2-0.7-0.3c-1-0.4-2.6-1.2-2.4-2.3c0.2-0.8,1.2-1.4,2.1-1.4c0.2,0,0.5,0,0.6,0.1c1,0.5,1.9,0.7,2.7,0.7
		c1,0,1.4-0.4,1.5-0.5c0-0.5-0.1-1-0.1-1.6c-0.2-3.6-0.5-8,0.6-10.5C21.8,7.9,29,7.3,31.1,7.3c0.4,0,0.7,0,1.1,0
		c2.1,0,9.4,0.6,12.8,8.2c1.1,2.5,0.9,7,0.6,10.6l0,0.2c0,0.5-0.1,0.9-0.1,1.4c0.1,0.1,0.5,0.4,1.4,0.5c0.7,0,1.6-0.3,2.5-0.7
		c0.3-0.1,0.6-0.2,0.8-0.2c0.3,0,0.7,0.1,0.9,0.2l0,0c0.8,0.3,1.3,0.8,1.3,1.4c0,0.5-0.4,1.4-2.4,2.1c-0.2,0.1-0.5,0.2-0.7,0.3
		c-1.1,0.4-2.8,0.9-3.3,2.1c-0.3,0.6-0.2,1.4,0.3,2.3c0,0,0,0,0,0c0.1,0.3,3.5,8,11,9.2c0.3,0.1,0.5,0.3,0.5,0.7
		c0,0.1,0,0.2-0.1,0.3c-0.5,1.1-2.8,2-6.7,2.6c-0.4,0.1-0.5,0.7-0.7,1.6c-0.1,0.4-0.2,0.8-0.3,1.2c-0.1,0.4-0.4,0.6-0.8,0.6h-0.1
		c-0.3,0-0.6,0-1.1-0.1c-0.8-0.2-1.8-0.3-2.9-0.3c-0.7,0-1.4,0.1-2.1,0.2c-1.5,0.2-2.7,1.1-4,2C37.2,55,35.1,56.5,32,56.5"/>
</g>
</svg>
