<?xml version="1.0" encoding="utf-8"?>
<!-- Generator: Adobe Illustrator 16.0.3, SVG Export Plug-In . SVG Version: 6.00 Build 0)  -->
<!DOCTYPE svg PUBLIC "-//W3C//DTD SVG 1.1//EN" "http://www.w3.org/Graphics/SVG/1.1/DTD/svg11.dtd">
<svg version="1.1" id="Calque_1" xmlns="http://www.w3.org/2000/svg" xmlns:xlink="http://www.w3.org/1999/xlink" x="0px" y="0px"
	 width="64px" height="64px" viewBox="0 0 64 64" enable-background="new 0 0 64 64" xml:space="preserve">
<g>
	<defs>
		<rect id="SVGID_1_" width="64" height="64"/>
	</defs>
	<clipPath id="SVGID_2_">
		<use xlink:href="#SVGID_1_"  overflow="visible"/>
	</clipPath>
	<path clip-path="url(#SVGID_2_)" d="M21.9,53.2c19.7,0,30.6-16.4,30.6-30.6c0-0.5,0-0.9,0-1.4c2.1-1.5,3.9-3.4,5.4-5.6
		c-1.9,0.9-4,1.4-6.2,1.7c2.2-1.3,3.9-3.4,4.7-5.9c-2.1,1.2-4.4,2.1-6.8,2.6c-2-2.1-4.8-3.4-7.8-3.4c-5.9,0-10.7,4.8-10.7,10.7
		c0,0.8,0.1,1.7,0.3,2.4c-8.9-0.4-16.8-4.7-22.1-11.2C8.2,14.2,7.7,16,7.7,18c0,3.7,1.9,7,4.8,8.9c-1.8-0.1-3.4-0.5-4.9-1.3v0.1
		c0,5.2,3.7,9.5,8.6,10.5c-0.9,0.3-1.8,0.4-2.8,0.4c-0.7,0-1.4-0.1-2-0.2c1.4,4.3,5.3,7.4,10,7.5c-3.7,2.9-8.3,4.6-13.3,4.6
		c-0.9,0-1.7,0-2.6-0.1C10.2,51.4,15.9,53.2,21.9,53.2"/>
</g>
</svg>
