<?xml version="1.0" encoding="utf-8"?>
<!-- Generator: Adobe Illustrator 16.0.3, SVG Export Plug-In . SVG Version: 6.00 Build 0)  -->
<!DOCTYPE svg PUBLIC "-//W3C//DTD SVG 1.1//EN" "http://www.w3.org/Graphics/SVG/1.1/DTD/svg11.dtd">
<svg version="1.1" id="Calque_1" xmlns="http://www.w3.org/2000/svg" xmlns:xlink="http://www.w3.org/1999/xlink" x="0px" y="0px"
	 width="64px" height="64px" viewBox="0 0 64 64" enable-background="new 0 0 64 64" xml:space="preserve">
<g>
	<defs>
		<rect id="SVGID_1_" width="64" height="64"/>
	</defs>
	<clipPath id="SVGID_2_">
		<use xlink:href="#SVGID_1_"  overflow="visible"/>
	</clipPath>
	<path clip-path="url(#SVGID_2_)" fill="#010101" d="M46.7,44h-2.9l0-1.7c0-0.7,0.6-1.3,1.4-1.3h0.2c0.7,0,1.4,0.6,1.4,1.3L46.7,44z
		 M36,40.4c-0.7,0-1.3,0.5-1.3,1.1v8.1c0,0.6,0.6,1.1,1.3,1.1c0.7,0,1.3-0.5,1.3-1.1v-8.1C37.3,40.9,36.7,40.4,36,40.4 M53.5,35.9
		v15.4c0,3.7-3.2,6.7-7.1,6.7H17c-3.9,0-7.1-3-7.1-6.7V35.9c0-3.7,3.2-6.7,7.1-6.7h29.3C50.2,29.2,53.5,32.2,53.5,35.9 M18.9,53
		l0-16.3l3.6,0v-2.4l-9.7,0v2.4l3,0V53H18.9z M29.8,39.2h-3v8.7c0,1.3,0.1,1.9,0,2.1c-0.2,0.7-1.4,1.4-1.8,0.1c-0.1-0.2,0-0.9,0-2.1
		l0-8.7h-3l0,8.6c0,1.3,0,2.3,0,2.8c0.1,0.8,0,1.7,0.8,2.2c1.4,1,4-0.1,4.6-1.6l0,1.8l2.4,0L29.8,39.2z M39.5,49.1l0-7.2
		c0-2.8-2.1-4.4-4.9-2.2l0-5.4l-3,0l0,18.5l2.5,0l0.2-1.2C37.5,54.6,39.5,52.6,39.5,49.1 M49,48.1l-2.3,0c0,0.1,0,0.2,0,0.3v1.3
		c0,0.7-0.6,1.2-1.2,1.2h-0.4c-0.7,0-1.2-0.6-1.2-1.2v-0.1v-1.4v-1.8H49v-2c0-1.4,0-2.9-0.2-3.7c-0.4-2.6-4-3-5.8-1.7
		c-0.6,0.4-1,1-1.3,1.7c-0.3,0.7-0.4,1.8-0.4,3.1v4.3C41.4,55.3,50.1,54.3,49,48.1 M37.4,24.8c0.2,0.4,0.4,0.7,0.7,0.9
		c0.3,0.2,0.7,0.3,1.2,0.3c0.4,0,0.8-0.1,1.2-0.4c0.3-0.2,0.6-0.6,0.9-1.1l-0.1,1.2h3.4V11.4H42v11.2c0,0.6-0.5,1.1-1.1,1.1
		c-0.6,0-1.1-0.5-1.1-1.1V11.4H37v9.7c0,1.2,0,2.1,0.1,2.5C37.1,24,37.2,24.4,37.4,24.8 M27.1,16.6c0-1.4,0.1-2.5,0.3-3.2
		c0.2-0.8,0.6-1.4,1.2-1.9c0.6-0.5,1.4-0.7,2.3-0.7c0.8,0,1.5,0.2,2,0.5c0.6,0.3,1,0.7,1.3,1.2c0.3,0.5,0.5,1,0.6,1.5
		c0.1,0.5,0.2,1.3,0.2,2.4V20c0,1.3-0.1,2.3-0.2,2.9c-0.1,0.6-0.3,1.2-0.7,1.7c-0.3,0.5-0.8,0.9-1.3,1.2c-0.5,0.3-1.1,0.4-1.8,0.4
		c-0.8,0-1.4-0.1-2-0.3c-0.5-0.2-1-0.6-1.2-1c-0.3-0.4-0.5-1-0.6-1.6c-0.1-0.6-0.2-1.6-0.2-2.8L27.1,16.6z M29.8,22.3
		c0,0.8,0.6,1.5,1.3,1.5c0.7,0,1.3-0.7,1.3-1.5v-7.7c0-0.8-0.6-1.5-1.3-1.5c-0.7,0-1.3,0.7-1.3,1.5V22.3z M20.4,26.2h3.2l0-11
		l3.8-9.4h-3.5l-2,7l-2-7h-3.5l4,9.5L20.4,26.2z"/>
</g>
</svg>
