<?xml version="1.0" encoding="utf-8"?>
<!-- Generator: Adobe Illustrator 16.0.3, SVG Export Plug-In . SVG Version: 6.00 Build 0)  -->
<!DOCTYPE svg PUBLIC "-//W3C//DTD SVG 1.1//EN" "http://www.w3.org/Graphics/SVG/1.1/DTD/svg11.dtd">
<svg version="1.1" id="Calque_1" xmlns="http://www.w3.org/2000/svg" xmlns:xlink="http://www.w3.org/1999/xlink" x="0px" y="0px"
	 width="64px" height="64px" viewBox="0 0 64 64" enable-background="new 0 0 64 64" xml:space="preserve">
<g>
	<defs>
		<rect id="SVGID_1_" width="64" height="64"/>
	</defs>
	<clipPath id="SVGID_2_">
		<use xlink:href="#SVGID_1_"  overflow="visible"/>
	</clipPath>
	<path clip-path="url(#SVGID_2_)" fill="#187BBD" d="M31.6,62.1C15,62.1,1.4,48.6,1.4,31.9C1.4,15.2,15,1.6,31.6,1.6
		c16.7,0,30.3,13.6,30.3,30.3C61.9,48.6,48.3,62.1,31.6,62.1 M31.6,9.8c-12.2,0-22.1,9.9-22.1,22.1C9.6,44.1,19.5,54,31.6,54
		s22.1-9.9,22.1-22.1C53.7,19.7,43.8,9.8,31.6,9.8"/>
	<polygon clip-path="url(#SVGID_2_)" fill="#187BBD" points="47.3,45.2 16.3,45.2 15.5,44.4 15.5,21.5 16.3,20.7 28.4,20.7 
		28.4,22.3 17.1,22.3 17.1,43.6 46.5,43.6 46.5,22.3 35.2,22.3 35.2,20.7 47.3,20.7 48.1,21.5 48.1,44.4 	"/>
	<path clip-path="url(#SVGID_2_)" fill="#187BBD" d="M29.8,41.2h-9.4l-0.8-0.8c0-1.7,0.8-3.6,2.9-4.4c-0.6-0.6-0.9-1.4-0.9-2.3
		c0-1.9,1.6-3.5,3.5-3.5s3.5,1.6,3.5,3.5c0,0.9-0.3,1.7-0.9,2.3c2.1,0.8,2.9,2.7,2.9,4.4L29.8,41.2z M21.2,39.6h7.6
		c-0.2-1-1.1-2.4-3.8-2.4C22.3,37.2,21.5,38.6,21.2,39.6 M25,31.8c-1,0-1.9,0.8-1.9,1.9c0,1,0.8,1.9,1.9,1.9c1,0,1.9-0.8,1.9-1.9
		C26.9,32.6,26.1,31.8,25,31.8"/>
	<path clip-path="url(#SVGID_2_)" fill="#187BBD" d="M35.2,25h-6.7l-0.8-0.8v-5.4c0-2.3,1.8-4.2,4.2-4.2c2.3,0,4.2,1.8,4.2,4.2v5.4
		L35.2,25z M29.2,23.4h5.1v-4.6c0-1.4-1.1-2.6-2.6-2.6c-1.4,0-2.6,1.1-2.6,2.6V23.4z"/>
	<path clip-path="url(#SVGID_2_)" fill="#187BBD" d="M31.8,17.5c-0.8,0-1.3,0.5-1.3,1.3c0,0.8,0.5,1.3,1.3,1.3
		c0.8,0,1.3-0.5,1.3-1.3C33.1,18,32.5,17.5,31.8,17.5"/>
	<path clip-path="url(#SVGID_2_)" fill="#187BBD" d="M43.9,39.9H33.1v-1.6h10.8V39.9z M43.9,37.2H33.1v-1.6h10.8V37.2z M43.9,34.5
		H33.1v-1.6h10.8V34.5z M38.5,31.8h-5.4v-1.6h5.4V31.8z M47.3,27.7h-31v-1.6h31V27.7z"/>
</g>
</svg>
