<?xml version="1.0" encoding="utf-8"?>
<!-- Generator: Adobe Illustrator 16.0.3, SVG Export Plug-In . SVG Version: 6.00 Build 0)  -->
<!DOCTYPE svg PUBLIC "-//W3C//DTD SVG 1.1//EN" "http://www.w3.org/Graphics/SVG/1.1/DTD/svg11.dtd">
<svg version="1.1" id="Calque_1" xmlns="http://www.w3.org/2000/svg" xmlns:xlink="http://www.w3.org/1999/xlink" x="0px" y="0px"
	 width="64px" height="64px" viewBox="0 0 64 64" enable-background="new 0 0 64 64" xml:space="preserve">
<g>
	<defs>
		<rect id="SVGID_1_" width="64" height="64"/>
	</defs>
	<clipPath id="SVGID_2_">
		<use xlink:href="#SVGID_1_"  overflow="visible"/>
	</clipPath>
	<path clip-path="url(#SVGID_2_)" fill="#187BBD" d="M31.6,62.1C15,62.1,1.4,48.6,1.4,31.9C1.4,15.2,15,1.6,31.6,1.6
		c16.7,0,30.3,13.6,30.3,30.3C61.9,48.6,48.3,62.1,31.6,62.1 M31.6,9.8c-12.2,0-22.1,9.9-22.1,22.1C9.6,44.1,19.5,54,31.6,54
		s22.1-9.9,22.1-22.1C53.7,19.7,43.8,9.8,31.6,9.8"/>
	<path clip-path="url(#SVGID_2_)" fill="#187BBD" d="M22.6,46.2h-5.4c-0.5,0-0.8-0.4-0.8-0.8V34.6c0-0.5,0.4-0.8,0.8-0.8h5.4
		c0.5,0,0.8,0.4,0.8,0.8v10.8C23.4,45.8,23.1,46.2,22.6,46.2 M18,44.6h3.8v-9.2H18V44.6z"/>
	<path clip-path="url(#SVGID_2_)" fill="#187BBD" d="M33.6,47.4c-1.8,0-3.8-0.7-7.3-1.9c-1.1-0.4-2.4-0.8-3.9-1.3
		c-0.4-0.1-0.7-0.6-0.5-1c0.1-0.4,0.6-0.7,1-0.5c1.5,0.5,2.8,1,3.9,1.4c7.3,2.5,7.3,2.5,14.4-1.2c1.5-0.8,3.3-1.8,5.6-2.9
		c-0.9-0.6-1.5-0.6-2.4-0.4l-5.7,2c0,0-0.1,0.1-0.1,0.1c-0.3,0.3-0.9,0.6-1.8,0.6h-7.4c-0.5,0-0.8-0.4-0.8-0.8
		c0-0.5,0.4-0.8,0.8-0.8h7.4c0.3,0,0.5-0.1,0.7-0.2c0.1-0.1,0.1-0.2,0.1-0.3c0-0.3-0.3-0.5-0.8-0.5h-4c-0.2,0-0.4-0.1-0.6-0.2
		c-1.1-1.1-3-2.5-5.5-2.5h-4c-0.5,0-0.8-0.4-0.8-0.8c0-0.5,0.4-0.8,0.8-0.8h4c2.3,0,4.5,0.9,6.4,2.7h3.7c1.4,0,2.2,0.8,2.4,1.7
		l4.8-1.6c1.9-0.5,3.3-0.1,4.9,1.5c0.2,0.2,0.3,0.5,0.2,0.7c0,0.3-0.2,0.5-0.4,0.6c-2.7,1.4-4.9,2.5-6.6,3.4
		C37.8,46.4,35.9,47.4,33.6,47.4 M33.4,35.4c-2.7,0-4.9-2.1-4.9-4.9c0-2.7,2.2-4.9,4.9-4.9c2.7,0,4.9,2.1,4.9,4.9
		C38.3,33.3,36.1,35.4,33.4,35.4 M33.4,27.3c-1.8,0-3.2,1.4-3.2,3.2c0,1.8,1.4,3.2,3.2,3.2c1.8,0,3.2-1.4,3.2-3.2
		C36.6,28.7,35.2,27.3,33.4,27.3 M33.4,32.7c-0.5,0-0.8-0.4-0.8-0.8v-2.7c0-0.5,0.4-0.8,0.8-0.8s0.8,0.4,0.8,0.8v2.7
		C34.2,32.3,33.9,32.7,33.4,32.7 M39.5,26c-2.7,0-4.9-2.1-4.9-4.9c0-2.7,2.2-4.9,4.9-4.9c2.7,0,4.9,2.1,4.9,4.9
		C44.3,23.8,42.2,26,39.5,26 M39.5,17.9c-1.8,0-3.2,1.4-3.2,3.2c0,1.8,1.4,3.2,3.2,3.2s3.2-1.4,3.2-3.2
		C42.7,19.3,41.3,17.9,39.5,17.9 M39.5,23.3c-0.5,0-0.8-0.4-0.8-0.8v-2.7c0-0.5,0.4-0.8,0.8-0.8s0.8,0.4,0.8,0.8v2.7
		C40.3,22.9,39.9,23.3,39.5,23.3"/>
</g>
</svg>
