<?xml version="1.0" encoding="utf-8"?>
<!-- Generator: Adobe Illustrator 16.0.3, SVG Export Plug-In . SVG Version: 6.00 Build 0)  -->
<!DOCTYPE svg PUBLIC "-//W3C//DTD SVG 1.1//EN" "http://www.w3.org/Graphics/SVG/1.1/DTD/svg11.dtd">
<svg version="1.1" id="Calque_1" xmlns="http://www.w3.org/2000/svg" xmlns:xlink="http://www.w3.org/1999/xlink" x="0px" y="0px"
	 width="64px" height="64px" viewBox="0 0 64 64" enable-background="new 0 0 64 64" xml:space="preserve">
<g>
	<defs>
		<rect id="SVGID_1_" width="64" height="64"/>
	</defs>
	<clipPath id="SVGID_2_">
		<use xlink:href="#SVGID_1_"  overflow="visible"/>
	</clipPath>
	<path clip-path="url(#SVGID_2_)" fill="#CF2338" d="M31.6,62.1C15,62.1,1.4,48.6,1.4,31.9C1.4,15.2,15,1.6,31.6,1.6
		c16.7,0,30.3,13.6,30.3,30.3C61.9,48.6,48.3,62.1,31.6,62.1 M31.6,9.8c-12.2,0-22.1,9.9-22.1,22.1C9.6,44.1,19.5,54,31.6,54
		s22.1-9.9,22.1-22.1C53.7,19.7,43.8,9.8,31.6,9.8"/>
	<path clip-path="url(#SVGID_2_)" fill="#CF2338" d="M41.8,46.9c-0.2,0-0.4-0.1-0.6-0.2l-3.8-3.8h-3c-2.3,0-4.2-1.8-4.2-4.2
		c0-0.5,0.4-0.8,0.8-0.8c0.5,0,0.8,0.4,0.8,0.8c0,1.4,1.1,2.6,2.6,2.6h3.4c0.2,0,0.4,0.1,0.6,0.2l2.7,2.7V42c0-0.5,0.4-0.8,0.8-0.8
		h2c1.4,0,2.6-1.1,2.6-2.6v-2.7c0-1.4-1.1-2.6-2.6-2.6c-0.5,0-0.8-0.4-0.8-0.8c0-0.5,0.4-0.8,0.8-0.8c2.3,0,4.2,1.8,4.2,4.2v2.7
		c0,2.3-1.8,4.2-4.2,4.2h-1.2V46c0,0.3-0.2,0.6-0.5,0.8C42,46.8,41.9,46.9,41.8,46.9 M23.6,40.1c-0.1,0-0.2,0-0.3-0.1
		c-0.3-0.1-0.5-0.4-0.5-0.8v-4.6h-1.2c-3.4,0-6.2-2.8-6.2-6.2v-5.4c0-3.4,2.8-6.2,6.2-6.2H35c3.5,0,6.2,2.7,6.2,6.2v5.4
		c0,3.4-2.8,6.2-6.2,6.2h-5.7l-5.2,5.2C24,40,23.8,40.1,23.6,40.1 M21.5,18.5c-2.5,0-4.6,2.1-4.6,4.6v5.4c0,2.5,2.1,4.6,4.6,4.6h2
		c0.5,0,0.8,0.4,0.8,0.8v3.4l4-4c0.2-0.2,0.4-0.2,0.6-0.2H35c2.5,0,4.6-2.1,4.6-4.6v-5.4c0-2.6-2-4.6-4.6-4.6H21.5z"/>
</g>
</svg>
