<?xml version="1.0" encoding="utf-8"?>
<!-- Generator: Adobe Illustrator 16.0.3, SVG Export Plug-In . SVG Version: 6.00 Build 0)  -->
<!DOCTYPE svg PUBLIC "-//W3C//DTD SVG 1.1//EN" "http://www.w3.org/Graphics/SVG/1.1/DTD/svg11.dtd">
<svg version="1.1" id="Calque_1" xmlns="http://www.w3.org/2000/svg" xmlns:xlink="http://www.w3.org/1999/xlink" x="0px" y="0px"
	 width="64px" height="64px" viewBox="0 0 64 64" enable-background="new 0 0 64 64" xml:space="preserve">
<path fill="#0F7BBD" d="M57.8,48.2v3.3H5.5V12.3h3.3v36H57.8z M54.5,16.4v11.1c0,0.4-0.2,0.6-0.5,0.8c-0.3,0.1-0.6,0.1-0.9-0.2
	L50,24.9L33.9,41.1c-0.2,0.2-0.4,0.3-0.6,0.3c-0.2,0-0.4-0.1-0.6-0.3l-6-6L16.1,45.8l-4.9-4.9l14.9-14.9c0.2-0.2,0.4-0.3,0.6-0.3
	c0.2,0,0.4,0.1,0.6,0.3l6,6L45.1,20L42,16.9c-0.3-0.3-0.3-0.6-0.2-0.9c0.1-0.3,0.4-0.5,0.8-0.5h11.1c0.2,0,0.4,0.1,0.6,0.2
	S54.5,16.1,54.5,16.4"/>
</svg>
