<?xml version="1.0" encoding="utf-8"?>
<!-- Generator: Adobe Illustrator 16.0.3, SVG Export Plug-In . SVG Version: 6.00 Build 0)  -->
<!DOCTYPE svg PUBLIC "-//W3C//DTD SVG 1.1//EN" "http://www.w3.org/Graphics/SVG/1.1/DTD/svg11.dtd">
<svg version="1.1" id="Calque_1" xmlns="http://www.w3.org/2000/svg" xmlns:xlink="http://www.w3.org/1999/xlink" x="0px" y="0px"
	 width="64px" height="64px" viewBox="0 0 64 64" enable-background="new 0 0 64 64" xml:space="preserve">
<g>
	<defs>
		<rect id="SVGID_1_" width="64" height="64"/>
	</defs>
	<clipPath id="SVGID_2_">
		<use xlink:href="#SVGID_1_"  overflow="visible"/>
	</clipPath>
	<path clip-path="url(#SVGID_2_)" fill="#0F7BBD" d="M57.8,21.7c0-0.1,0-0.2-0.1-0.3v0c0-0.1-0.1-0.2-0.1-0.2c0,0,0,0,0-0.1
		c-0.1-0.1-0.1-0.1-0.2-0.2c0,0,0,0,0,0c-0.1-0.1-0.2-0.1-0.2-0.1c0,0,0,0-0.1,0c-0.1,0-0.2,0-0.3,0h-6.6c-0.6,0-1.1,0.5-1.1,1.1
		c0,0.6,0.5,1.1,1.1,1.1h4.1L41.4,35.7l-7.5-7.5c-0.4-0.4-1.1-0.4-1.5,0l-4.8,4.8l-6-6c-0.4-0.4-1.1-0.4-1.5,0L5.8,41.2
		c-0.4,0.4-0.4,1.1,0,1.5C6,42.9,6.3,43,6.6,43s0.5-0.1,0.8-0.3l13.6-13.6l6,6c0.4,0.4,1.1,0.4,1.5,0l4.8-4.8l7.5,7.5
		c0.4,0.4,1.1,0.4,1.5,0l13.5-13.5v4.1c0,0.6,0.5,1.1,1.1,1.1c0.6,0,1.1-0.5,1.1-1.1v-6.6C57.8,21.8,57.8,21.8,57.8,21.7
		C57.8,21.7,57.8,21.7,57.8,21.7"/>
</g>
</svg>
